<svg xmlns="http://www.w3.org/2000/svg">
  <symbol id="trash" viewBox="0 0 24 24">
    <path d="M6 19c0 1.1.9 2 2 2h8c1.1 0 2-.9 2-2V7H6v12zM19 4h-3.5l-1-1h-5l-1 1H5v2h14V4z" />
  </symbol>
  <symbol id="stats" viewBox="0 0 24 24">
    <path d="M5 19V10h3v9H5zm5.5 0V5h3v14h-3zM16 19v-6h3v6h-3z" />
  </symbol>
  <symbol id="close" viewBox="0 0 24 24">
    <path d="M6 6l12 12M18 6L6 18" fill="none" stroke="currentColor" stroke-width="2" stroke-linecap="round" />
  </symbol>
  <symbol id="sort" viewBox="0 0 24 24">
    <path fill="currentColor" d="M9 3 5 6.99h3V14h2V6.99h3L9 3zm7 14.01V10h-2v7.01h-3L15 21l4-3.99h-3z" />
  </symbol>
  <symbol id="in-view" viewBox="0 0 24 24">
    <g fill="none" stroke="currentColor" stroke-width="2" stroke-linecap="round">
      <circle cx="12" cy="12" r="7" />
      <circle cx="12" cy="12" r="1.6" fill="currentColor" stroke="none" />
      <line x1="12" y1="2" x2="12" y2="5" />
      <line x1="12" y1="19" x2="12" y2="22" />
      <line x1="2" y1="12" x2="5" y2="12" />
      <line x1="19" y1="12" x2="22" y2="12" />
    </g>
  </symbol>
  <symbol id="camera" viewBox="0 0 24 24">
    <g fill="none" stroke="currentColor" stroke-width="2" stroke-linecap="round" stroke-linejoin="round">
      <path d="M4 8a2 2 0 0 1 2-2h1.5l1-1.5h7l1 1.5H18a2 2 0 0 1 2 2v9a2 2 0 0 1-2 2H6a2 2 0 0 1-2-2z" />
      <circle cx="12" cy="12.5" r="3.5" />
    </g>
  </symbol>
  <symbol id="line-style" viewBox="0 0 24 24">
    <g fill="none" stroke="currentColor" stroke-width="2" stroke-linecap="round">
      <line x1="4" y1="6" x2="20" y2="6" />
      <circle cx="9" cy="6" r="2" fill="currentColor" stroke="none" />
      <line x1="4" y1="12" x2="20" y2="12" />
      <circle cx="15" cy="12" r="2" fill="currentColor" stroke="none" />
      <line x1="4" y1="18" x2="20" y2="18" />
      <circle cx="11" cy="18" r="2" fill="currentColor" stroke="none" />
    </g>
  </symbol>
  <symbol id="expand" viewBox="0 0 24 24">
    <g fill="none" stroke="currentColor" stroke-width="2" stroke-linecap="round" stroke-linejoin="round">
      <path d="M9 4H5a1 1 0 0 0-1 1v4" />
      <path d="M15 4h4a1 1 0 0 1 1 1v4" />
      <path d="M9 20H5a1 1 0 0 1-1-1v-4" />
      <path d="M15 20h4a1 1 0 0 0 1-1v-4" />
    </g>
  </symbol>
  <symbol id="map" viewBox="0 0 24 24">
    <g fill="none" stroke="currentColor" stroke-width="2" stroke-linecap="round" stroke-linejoin="round">
      <polygon points="1 6 1 22 8 18 16 22 23 18 23 2 16 6 8 2 1 6" />
      <line x1="8" y1="2" x2="8" y2="18" />
      <line x1="16" y1="6" x2="16" y2="22" />
    </g>
  </symbol>
  <symbol id="chevron-left" viewBox="0 0 24 24">
    <path d="M15 4l-8 8 8 8" fill="none" stroke="currentColor" stroke-width="2.5" stroke-linecap="round" stroke-linejoin="round" />
  </symbol>
  <symbol id="chevron-right" viewBox="0 0 24 24">
    <path d="M9 4l8 8-8 8" fill="none" stroke="currentColor" stroke-width="2.5" stroke-linecap="round" stroke-linejoin="round" />
  </symbol>
</svg>
